<svg xmlns="http://www.w3.org/2000/svg" width="89" height="89" viewBox="0 0 89 89">
  <g id="Group_2437" data-name="Group 2437" transform="translate(-60 -4383)">
    <circle id="Ellipse_70" data-name="Ellipse 70" cx="44.5" cy="44.5" r="44.5" transform="translate(60 4383)" fill="#fff"/>
    <g id="Group_2436" data-name="Group 2436" transform="translate(79.901 4402.978)">
      <path id="Path_10" data-name="Path 10" d="M309.953,1.6a24.449,24.449,0,0,1,17.527,7.38c2.614,2.921,4.3,5.381,5.073,7.533a22.427,22.427,0,0,1,1.845,8.763v1.691c0,3.69-1.384,7.687-4,11.992l-6.919-6.918a33.407,33.407,0,0,0,1.076-6.3c0-4.3-2-8.3-6-11.685a15.075,15.075,0,0,0-8.917-2.921,15.331,15.331,0,0,0-9.993,4,15.153,15.153,0,0,0-4.766,11.07,15.409,15.409,0,0,0,4,10.147,14.744,14.744,0,0,0,10.762,4.766,22.412,22.412,0,0,0,6-1.076l7.072,6.765a23.741,23.741,0,0,1-12.146,3.844h-1.23c-6.611,0-12.453-2.614-17.527-7.687A24.107,24.107,0,0,1,285.2,26.2c0-7.38,3.075-13.837,9.071-19.064A24.434,24.434,0,0,1,309.953,1.6Z" transform="translate(-285.2 -1.6)" fill="#1b1d1d"/>
      <path id="Path_11" data-name="Path 11" d="M310,20.4h1.076l13.222,13.376v.615l-5.842,6h-1.076L304,27.011V26.4Z" transform="translate(-275.096 8.504)" fill="#ef3b13"/>
    </g>
  </g>
</svg>
